<svg width="120" height="40" viewBox="135 138 88 44" fill="none" xmlns="http://www.w3.org/2000/svg">
<path d="M150.469 140.133H140.311V179.856H150.469V140.133Z" fill="#3C2493"/>
<path d="M155.546 152.042V179.856H165.704V162.116C165.704 156.551 161.157 152.042 155.546 152.042Z" fill="#3C2493"/>
<path d="M187.69 155.346V146.759L180.747 146.834V140.133H170.589V169.781C170.589 175.358 175.153 179.873 180.776 179.856C181.329 179.856 181.84 179.856 182.294 179.856H187.463V171.309H183.841C182.73 171.309 181.939 171.096 181.462 170.663C180.986 170.231 180.747 169.527 180.747 168.541V155.346H187.69Z" fill="#3C2493"/>
<path d="M219.683 156.909C219.683 151.344 215.136 146.834 209.525 146.834H200.832C195.22 146.834 190.673 151.344 190.673 156.909V165.04C190.673 166.096 190.673 167.866 190.673 169.827C190.661 175.398 195.214 179.919 200.832 179.919H219.689V171.257C218.793 171.326 207.862 171.332 202.809 171.338C201.506 171.338 200.454 170.294 200.448 169.008C200.448 168.356 200.448 167.647 200.448 166.99H219.695V156.915L219.683 156.909ZM210.699 160.554H200.826V158.224C200.826 156.638 202.122 155.346 203.727 155.346H207.798C209.397 155.346 210.699 156.632 210.699 158.224V160.554Z" fill="#3C2493"/>
<path d="M165.704 150.219C162.913 150.219 160.384 149.1 158.546 147.295C156.691 145.467 155.546 142.941 155.546 140.144H165.704V150.219Z" fill="#3C2493"/>
</svg>
